<?xml version="1.0" encoding="UTF-8"?>
<svg width="736px" height="91px" viewBox="0 0 736 91" version="1.1" xmlns="http://www.w3.org/2000/svg" xmlns:xlink="http://www.w3.org/1999/xlink">
    <!-- Generator: Sketch 44 (41411) - http://www.bohemiancoding.com/sketch -->
    <title>Group</title>
    <desc>Created with Sketch.</desc>
    <defs></defs>
    <g id="Page-1" stroke="none" stroke-width="1" fill="none" fill-rule="evenodd">
        <g id="Artboard-Copy-8" transform="translate(-1124.000000, -1478.000000)">
            <g id="Group" transform="translate(1122.000000, 1478.000000)">
                <polygon id="Star" fill="#FFFFFF" points="50 75 20.6107374 90.4508497 26.2235871 57.7254249 2.44717419 34.5491503 35.3053687 29.7745751 50 0 64.6946313 29.7745751 97.5528258 34.5491503 73.7764129 57.7254249 79.3892626 90.4508497"></polygon>
                <polygon id="Star" fill="#005397" points="50 75 20.6107374 90.4508497 26.2235871 57.7254249 2.44717419 34.5491503 35.3053687 29.7745751 50 0 64.6946313 29.7745751 97.5528258 34.5491503 73.7764129 57.7254249 79.3892626 90.4508497"></polygon>
                <polygon id="Star-Copy" fill="#E54B4B" points="210 75 180.610737 90.4508497 186.223587 57.7254249 162.447174 34.5491503 195.305369 29.7745751 210 0 224.694631 29.7745751 257.552826 34.5491503 233.776413 57.7254249 239.389263 90.4508497"></polygon>
                <polygon id="Star-Copy-2" fill="#005397" points="370 75 340.610737 90.4508497 346.223587 57.7254249 322.447174 34.5491503 355.305369 29.7745751 370 0 384.694631 29.7745751 417.552826 34.5491503 393.776413 57.7254249 399.389263 90.4508497"></polygon>
                <polygon id="Star-Copy-3" fill="#E54B4B" points="530 75 500.610737 90.4508497 506.223587 57.7254249 482.447174 34.5491503 515.305369 29.7745751 530 0 544.694631 29.7745751 577.552826 34.5491503 553.776413 57.7254249 559.389263 90.4508497"></polygon>
                <polygon id="Star-Copy-4" fill="#005397" points="690 75 660.610737 90.4508497 666.223587 57.7254249 642.447174 34.5491503 675.305369 29.7745751 690 0 704.694631 29.7745751 737.552826 34.5491503 713.776413 57.7254249 719.389263 90.4508497"></polygon>
            </g>
        </g>
    </g>
</svg>